<?xml version="1.0" standalone="no"?>
<!DOCTYPE svg PUBLIC "-//W3C//DTD SVG 20010904//EN"
 "http://www.w3.org/TR/2001/REC-SVG-20010904/DTD/svg10.dtd">
<svg version="1.0" xmlns="http://www.w3.org/2000/svg"
 width="225.000000pt" height="225.000000pt" viewBox="0 0 225.000000 225.000000"
 preserveAspectRatio="xMidYMid meet">

<g transform="translate(0.000000,225.000000) scale(0.100000,-0.100000)"
fill="#000000" stroke="none">
<path d="M1015 2079 c-369 -40 -678 -304 -791 -675 -25 -81 -28 -103 -28 -254
0 -152 2 -172 27 -255 52 -168 133 -303 252 -416 88 -85 145 -124 250 -174
154 -74 226 -90 400 -89 173 1 250 17 391 83 252 118 428 324 511 596 25 83
27 103 27 255 0 150 -3 173 -27 253 -53 173 -134 303 -264 428 -197 188 -470
279 -748 248z m196 -458 l29 -29 0 -278 0 -278 84 82 c103 101 125 106 192 38
37 -36 44 -50 44 -82 0 -37 -9 -48 -198 -236 -190 -190 -199 -198 -237 -198
-38 0 -47 8 -237 198 -187 187 -198 200 -198 235 0 51 58 115 112 123 34 6 40
3 122 -76 l86 -83 0 277 0 278 29 29 c26 25 37 29 86 29 49 0 60 -4 86 -29z"/>
</g>
</svg>
